<svg viewBox="0 0 1500 176.7462209" version="1.1" xmlns="http://www.w3.org/2000/svg" data-name="Layer 1" id="Layer_1">
  <defs>
    <style>
      .cls-1 {
        fill: none;
      }

      .cls-1, .cls-2 {
        stroke-width: 0px;
      }

      .cls-2 {
        fill: #fff;
      }
    </style>
  </defs>
  <path d="" class="cls-1"></path>
  <g data-name="Layer%200%A0Image" id="Layer_200_A0Image">
    <g data-name="Layer%202" id="Layer_202">
      <g data-name="Layer%2010" id="Layer_2010">
        <path d="M457.7039289,0h110.3474255c4.0785568,0,5.5513526,2.4924472,5.5513526,5.5513596-.1132654,8.1571-.1132654,16.3141985-.1132654,24.4712991,0,3.512085-1.5861304,5.0981873-5.0981873,5.0981873h-218.5423244c-.7930306,0-1.4727958,0-2.265861.1132935-2.0392611.4531718-3.3987916,2.2658589-3.5120569,4.3051373-.1133,2.0392741,1.3594959,3.9652568,3.5120569,4.5317221,4.0785568,1.1329305,8.0438136,2.265861,12.0090704,3.3987916,50.9818733,14.0483358,101.8504466,28.2099716,152.8323199,42.3716031,10.8761399,2.9456176,21.9788797,5.6646526,32.7417196,9.1767355,15.7477273,4.984896,25.2643367,15.8610272,27.7567977,32.1752284,3.3987916,21.1857972-10.8761399,40.8987813-31.9486544,44.7507554-2.379161.4531653-4.9848874.6797479-7.3640484.6797479h-219.6752204c-3.2854916,0-4.9848874-1.6993958-4.9848874-5.0981873v-24.9244714c0-3.5120742,1.5860958-5.21147,5.2114527-5.21147h218.4290245c.6797652,0,1.4727958.1132913,2.1525611-.1133,2.0392611-.339874,3.6253915-2.1525611,3.6253915-4.3051308.1132654-2.0392784-1.3595305-3.8519655-3.5120915-4.4184307-4.645022-1.3595132-9.403344-2.6057436-14.0483315-3.9652568-60.9516826-16.8806664-121.9033306-33.6480329-182.7417132-50.6419907-15.8610272-4.5317221-25.4909366-15.4078576-28.5498283-31.6087632-3.9652568-20.6193363,10.30964-41.4652584,30.9289893-45.4305155,2.9456263-.5664653,5.8912525-.9063444,8.8368442-.9063444h108.4214643Z" class="cls-2"></path>
      </g>
      <g data-name="Layer%209" id="Layer_209">
        <path d="M1414.2372199,176.6238607c-26.1708056,0-52.3414729.3398826-78.6254056-.1132827-27.1903324-.5664653-48.7160122-12.4622357-64.4637741-34.8942634-7.1375176-10.1963747-11.3293052-21.7522625-12.9154356-34.1012068-.4531999-3.7386742-.5664653-7.4773397-.6797307-11.2160138v-53.134443c0-4.1918395-1.5861304-5.7779439-5.777918-5.7779439h-11.6692396c-2.8323263,0-4.5317221-1.6993958-4.5317221-4.5317221-.1132654-4.3051351-.1132654-8.6102724,0-12.9154075,0-2.7190339,1.6993958-4.4184297,4.4184567-4.4184297h12.2357049c3.5120569,0,5.3247181-1.8126882,5.3247181-5.3247732v-5.6646526c.1132654-2.7190332,1.8126612-4.5317221,4.4184567-4.5317221h26.2839327c2.6057955,0,4.4184567,1.8126889,4.4184567,4.5317221v6.1178244c0,2.9456198,1.8126612,4.758309,4.7582529,4.8716014h123.4894264c2.1525956.1132935,3.9652568,1.5861034,3.9652568,3.8519644.1134037,4.6450156.1134037,9.4033224,0,14.1616315,0,2.1525676-1.8126612,3.738672-3.9652568,3.8519633h-1.5859921c-40.332437,0-80.6647358,0-120.9970346-.1132913-3.1722608,0-5.777918,1.5861001-5.6646526,5.6646526.1132654,18.4667666-.1132654,36.9335331,0,55.400304.1132654,19.8262841,15.0680312,37.9531723,34.5543808,41.9184291,3.5120569.7930479,7.0241139,1.1329305,10.6495745,1.1329305,52.1148038.1132913,104.1163422,0,156.231146,0h1.8126612c2.265861.2265826,4.0785222,1.9259784,4.0785222,4.3051394v26.7371498c0,2.265861-1.8126612,4.0785568-4.1917876,4.1918395h-81.5709972Z" class="cls-2"></path>
      </g>
      <g data-name="Layer%208" id="Layer_208">
        <path d="M982.8172237,176.6238607h-46.6767511c-2.0392611,0-3.6253915-.5664653-4.6449875-2.3791437-.9063306-1.9259784-.3398653-3.6253742.9063306-5.2114873,40.7854986-54.4939561,81.5709972-108.9879123,122.3564959-163.4818701,1.1329305-1.4728099,2.265861-2.6057404,4.1918567-2.6057404,1.6993958.1132932,2.8323263.9063446,3.7386569,2.1525681,7.5906483,10.0830812,15.067962,20.1661623,22.6586103,30.2492457,33.3081849,44.4108771,66.5030352,88.9350413,99.8111509,133.4592141.6797307.7930479,1.2461959,1.9259784,1.472865,2.9456263.4531999,2.6057264-1.472865,4.8715874-4.0785222,4.8715874h-33.3081849c-1.5861304,0-2.7190609-.9063306-3.738726-2.265861-10.30964-13.7084489-20.6192801-27.5301977-30.9289893-41.3519552-17.2205577-22.998493-34.4410462-45.9969773-51.6616039-68.9954702-2.492461-3.2855002-5.6646526-3.2855002-8.1571136,0-17.3338231,23.1117843-34.6676462,46.2235686-52.0015384,69.3353442-.9063306,1.3595218-1.5860612,2.719035-1.3594613,4.4184307.3398653,2.0392784,2.1525265,3.6253828,4.3051221,3.6253828h29.3428589c1.5861304,0,2.8323263-.9063479,3.738726-2.265861,4.6449875-6.1178265,9.4033095-12.3489444,13.9350315-18.5800622,1.2461959-1.6993958,2.7189918-2.3791524,4.758322-2.3791524h14.3881622c2.0393302,0,3.738726.5664653,4.5317221,2.605735.7930652,1.8126871.3399345,3.5120829-1.019596,4.984896-13.7085007,16.2009099-27.4169323,32.5151024-41.2386985,48.7160122-1.1329305,1.4728131-2.6057264,2.1525611-4.5317221,2.1525611h-46.7900165Z" class="cls-2"></path>
      </g>
      <g data-name="Layer%207" id="Layer_207">
        <path d="M167.7870165,0h91.540772c2.9456263,0,5.4380699,1.4728096,5.3247873,5.3247732-.1133,8.0438071,0,16.2009066,0,24.3580072,0,4.0785481-1.4728131,5.4380656-5.4380699,5.4380656-59.8187348,0-119.5241696,0-179.229613.1132935-17.333836,0-30.4758283,7.8172201-39.1993942,22.7719038-3.7386698,6.3444092-5.5513591,13.3685792-5.5513591,20.7326276v93.4667677c-.1132935,2.6057436-1.9259827,4.4184221-4.4184286,4.4184221H4.5317221c-2.6057401,0-4.418429-1.8126785-4.418429-4.5317221,0-31.8353372-.3398792-63.6706916.2265861-95.5060374.3398792-22.3187277,9.5166161-41.1253769,26.057401-56.1933519C38.6329289,9.29003,53.134443,2.8323263,69.4486398.6797583c3.5120872-.4531722,7.2507527-.6797583,10.7628442-.6797583h87.5755324Z" class="cls-2"></path>
      </g>
      <g data-name="Layer%206" id="Layer_206">
        <path d="M750.0000024,105.9290034h-126.3217527c-.7930652,0-1.5861304,0-2.3791264-.1132913-1.9259957-.3398826-3.3987916-1.9259871-3.3987916-3.9652568-.1133345-9.0634441-.1133345-18.1268883,0-27.0770411,0-2.0392784,1.4727958-3.6253785,3.5120569-3.9652568.5664653-.1132913,1.2461959-.1132913,1.8126612-.1132913h253.6631705c.4531999,0,1.0196651,0,1.4727958.1132913,2.3791956.226587,3.9652568,1.8126871,3.9652568,4.1918395v26.6238672c0,2.265861-1.5860612,3.8519655-3.8519223,4.1918481-.6797998.1132913-1.3595305.1132913-2.0393302.1132913h-126.4350181Z" class="cls-2"></path>
      </g>
      <g data-name="Layer%205" id="Layer_205">
        <path d="M750.1132678,0h127.7946177c2.6057264.1132931,4.4183875,1.8126889,4.4183875,4.3051359v26.510575c0,2.4924458-1.8126612,4.3051351-4.3051221,4.3051351-.4531999.1132935-.7930652,0-1.1329305,0h-253.6631705c-.792996,0-1.5860612,0-2.3791264-.226587-1.8126612-.4531718-2.9455917-2.0392741-2.9455917-3.8519633-.1133345-8.9501507-.1133345-17.9003013,0-26.8504528,0-2.3791541,1.8126612-4.0785499,4.0785222-4.191843h128.1344138Z" class="cls-2"></path>
      </g>
      <g data-name="Layer%204" id="Layer_204">
        <path d="M750.2266023,141.389732h127.7945485c2.492461.1132913,4.3051221,1.9259784,4.3051221,4.3051394v26.6238672c0,2.4924437-1.8126612,4.1918395-4.3051221,4.3051221h-254.796101c-.9063306,0-1.8126612,0-2.6057264-.3398653-1.6993958-.5664653-2.7189918-1.9259957-2.7189918-3.7386742-.1133345-9.0634441-.1133345-18.0136056,0-26.9637498,0-2.265861,1.6993958-3.9652568,3.9652568-4.0785481.5664653-.1132913,1.1329305-.1132913,1.6993958-.1132913h126.661618Z" class="cls-2"></path>
      </g>
    </g>
  </g>
  <path d="" class="cls-1"></path>
</svg>